<?xml version="1.0" encoding="UTF-8" standalone="no"?>
<!-- Created with Inkscape (http://www.inkscape.org/) -->

<svg
   xmlns:dc="http://purl.org/dc/elements/1.1/"
   xmlns:cc="http://creativecommons.org/ns#"
   xmlns:rdf="http://www.w3.org/1999/02/22-rdf-syntax-ns#"
   xmlns:svg="http://www.w3.org/2000/svg"
   xmlns="http://www.w3.org/2000/svg"
   version="1.1"
   width="670.55737"
   height="94.190659"
   id="svg22199">
  <defs
     id="defs22201" />
  <metadata
     id="metadata22204">
    <rdf:RDF>
      <cc:Work
         rdf:about="">
        <dc:format>image/svg+xml</dc:format>
        <dc:type
           rdf:resource="http://purl.org/dc/dcmitype/StillImage" />
        <dc:title></dc:title>
      </cc:Work>
    </rdf:RDF>
  </metadata>
  <g
     transform="translate(409.56438,-96.69542)"
     id="layer1">
    <g
       transform="matrix(1.25,0,0,-1.25,-390.38329,148.86108)"
       id="g21621">
      <path
         d="m 0,0 0,20.239 -6.085,-2.72 c 0,0 -1.551,-3.47 -1.279,-8.514 0.212,-3.944 2.416,-8.653 4.107,-10.624 L 0,0 z m 17.819,41.671 c 1.5,-0.132 3.856,-0.875 5.632,-2.437 1.886,-1.824 2.314,-4.604 1.655,-7.13 -0.589,-2.255 -1.248,-3.421 -3.544,-4.979 -2.32,-1.572 -5.128,-1.438 -5.128,-1.438 l 0,-9.749 4.744,-3.844 -4.745,-3.826 0.002,-13.294 c 0,0 4.753,2.734 7.701,8.829 0,0 0.121,0.331 0.398,0.968 0.262,-1.641 0.113,-4.951 -1.737,-9.197 -1.392,-3.197 -3.926,-6.282 -7.104,-8.038 -5.63,-3.114 -9.853,-3.413 -14.381,-2.48 -5.301,1.095 -10.116,4.069 -13.403,9.27 -2.31,3.653 -3.342,7.908 -3.248,12.495 0.186,8.996 6.875,16.744 14.594,19.644 0.94,0.354 1.314,0.586 2.647,0.698 C 1.288,26.751 0.577,26.212 -0.294,25.638 -2.78,23.998 -4.911,20.746 -5.82,18.24 l 14.985,6.683 0,-20.955 -12.084,-6.05 C -1.542,-4 2.642,-6.89 6.22,-7.289 c 6.089,-0.68 9.66,1.982 9.66,1.982 l -0.001,13.575 -4.718,3.826 4.72,3.83 0,9.763 c -2.573,0.3 -5.698,1.154 -7.526,1.604 -2.688,0.66 -11.648,3.175 -13.056,3.384 -1.408,0.21 -3.145,0.15 -4.196,-0.796 -1.051,-0.945 -1.701,-2.61 -1.254,-4.11 0.254,-0.852 0.839,-1.354 1.279,-1.834 0,0 -0.516,0.045 -1.454,0.605 -1.692,1.012 -2.979,3.007 -3.132,5.455 -0.201,3.204 1.121,6.099 3.769,8.045 2.301,1.471 4.902,2.424 7.927,1.994 4.413,-0.625 10.346,-3.126 15.631,-4.396 2.048,-0.491 3.633,-0.655 5.073,0.177 0.669,0.486 1.85,1.735 0.885,3.394 -1.125,1.937 -3.281,1.892 -5.108,2.24 1.572,0.326 1.917,0.326 3.1,0.222"
         id="path21623"
         style="fill:#000000;fill-opacity:1;fill-rule:nonzero;stroke:none" />
    </g>
    <g
       transform="matrix(1.25,0,0,-1.25,-295.21579,142.26733)"
       id="g21625">
      <path
         d="m 0,0 -6.809,-4.987 0,16.59 L 0,0 z m -0.195,15.949 c 0,0 -4.593,-2.788 -7.68,-4.623 -3.086,-1.835 -7.228,-3.861 -7.228,-3.861 l 0,-19.313 -2.763,-2.212 0.368,-0.435 2.694,2.184 8.444,-7.637 14.676,11.621 -0.347,0.428 -8.111,-6.37 -6.667,6.249 0.001,2.324 13.391,9.852 -6.778,11.793"
         id="path21627"
         style="fill:#000000;fill-opacity:1;fill-rule:nonzero;stroke:none" />
    </g>
    <g
       transform="matrix(1.25,0,0,-1.25,-343.54579,176.28358)"
       id="g21629">
      <path
         d="m 0,0 c 1.927,-0.472 5.325,-0.741 9.424,1.313 4.537,2.273 6.821,7.098 6.789,12.04 l 0.192,7.002 0.002,15.311 2.899,2.211 -0.336,0.44 -2.856,-2.162 -6.589,7.329 -8.452,-7.253 0,24.675 -10.562,-8.171 c 0.47,-0.302 1.967,-0.571 2.012,-2.684 l 0,-34.564 -4.473,-3.316 0.304,-0.462 2.162,1.611 6.013,-5.597 9.468,7.54 -0.342,0.431 -2.226,-1.765 -2.356,2.334 0.023,19.256 2.757,2.356 4.114,-5.118 c 0,0 -0.007,-12.46 0.004,-16.601 C 7.941,11.744 7.926,6.233 5.607,3.57 3.288,0.908 2.36,0.697 0,0"
         id="path21631"
         style="fill:#000000;fill-opacity:1;fill-rule:nonzero;stroke:none" />
    </g>
    <g
       transform="matrix(1.25,0,0,-1.25,-261.41079,174.10983)"
       id="g21633">
      <path
         d="M 0,0 C -3.783,0.438 -5.37,2.727 -5.327,4.535 -5.3,5.701 -4.247,7.969 -1.948,8.281 0.352,8.595 2.7,7.52 4.686,5.186 L 13.421,14.843 13,15.221 10.653,12.595 C 8.27,15.308 4.886,17.016 1.517,17.512 l 0,29.425 22.694,-41.353 c 0,0 0.216,-0.468 1.149,-0.472 0.804,-0.004 0.61,0.657 0.61,0.657 l -0.002,41.608 c 1.843,0.076 4.658,1.095 6.024,2.497 4.369,4.487 2.585,9.383 2.105,9.865 -0.267,-2.146 -1.913,-4.297 -4.658,-4.306 -3.605,-0.012 -5.803,2.647 -5.803,2.647 l -8.73,-9.951 0.417,-0.376 2.501,2.852 c 3.053,-2.807 5.285,-3.078 7.591,-3.228 L 25.414,23.234 8.58,53.824 c -1.523,2.526 -3.843,4.748 -7.481,4.774 -4.182,0.028 -7.174,-3.66 -7.531,-6.836 -0.406,-3.591 0.042,-4.418 0.042,-4.418 0,0 0.615,3.999 3.087,3.963 2.218,-0.033 3.375,-2.075 4.265,-3.606 l 0,-8.862 c -2.289,-0.164 -8.249,-0.419 -8.614,-6.624 -0.025,-2.303 1.407,-4.724 2.66,-5.545 1.613,-1.056 2.871,-1.032 2.871,-1.032 0,0 -1.932,1.025 -1.353,3.058 0.518,1.817 4.302,2.115 4.439,1.359 l 0,-12.505 C -0.856,17.567 -6.688,17.376 -9.317,12.37 -10.902,9.354 -10.811,5.973 -9.116,3.587 -7.735,1.645 -4.892,-0.838 0,0"
         id="path21635"
         style="fill:#000000;fill-opacity:1;fill-rule:nonzero;stroke:none" />
    </g>
    <g
       transform="matrix(1.25,0,0,-1.25,-201.25579,142.26733)"
       id="g21637">
      <path
         d="m 0,0 -6.809,-4.987 0,16.59 L 0,0 z m -0.195,15.949 c 0,0 -4.593,-2.788 -7.68,-4.623 -3.086,-1.835 -7.228,-3.861 -7.228,-3.861 l 0,-19.313 -2.762,-2.212 0.367,-0.435 2.694,2.184 8.444,-7.637 14.676,11.621 -0.347,0.428 -8.111,-6.37 -6.667,6.249 0.001,2.324 13.391,9.852 -6.778,11.793"
         id="path21639"
         style="fill:#000000;fill-opacity:1;fill-rule:nonzero;stroke:none" />
    </g>
    <g
       transform="matrix(1.25,0,0,-1.25,-175.85704,167.38358)"
       id="g21641">
      <path
         d="m 0,0 -7.196,5.973 -3.161,-2.288 -0.321,0.448 3.215,2.347 0,16.727 c 0.156,6.879 -6.304,5.171 -5.954,12.478 0.153,3.21 3.262,5.638 4.83,6.439 1.678,0.858 3.495,0.854 3.495,0.854 0,0 -2.947,-1.844 -2.231,-4.495 1.103,-4.083 8.081,-4.443 8.212,-9.88 l 0,-18.974 5.153,-4.13 1.355,1.065 0,20.538 -2.777,2.759 7.152,6.327 6.536,-5.794 -2.494,-2.705 0,-18.195 6.119,-5.048 1.089,0.688 0,21.909 -2.783,2.608 7.168,6.549 6.7,-5.535 2.676,2.366 0.362,-0.42 -6.023,-5.288 0,-17.856 L 15.706,-0.045 7.822,6.201 0,0"
         id="path21643"
         style="fill:#000000;fill-opacity:1;fill-rule:nonzero;stroke:none" />
    </g>
    <g
       transform="matrix(1.25,0,0,-1.25,218.56921,142.26733)"
       id="g21645">
      <path
         d="m 0,0 -6.81,-4.987 0,16.59 L 0,0 z m -0.195,15.949 c 0,0 -4.593,-2.788 -7.68,-4.623 -3.087,-1.835 -7.229,-3.861 -7.229,-3.861 l 10e-4,-19.313 -2.762,-2.212 0.368,-0.435 2.693,2.184 8.444,-7.637 14.676,11.621 -0.348,0.428 -8.111,-6.37 -6.667,6.249 0,2.324 13.392,9.852 -6.777,11.793"
         id="path21647"
         style="fill:#000000;fill-opacity:1;fill-rule:nonzero;stroke:none" />
    </g>
    <g
       transform="matrix(1.25,0,0,-1.25,132.19796,132.43608)"
       id="g21649">
      <path
         d="m 0,0 0.361,-0.417 2.764,2.378 4.101,-4.636 0,-15.966 -1.99,-1.812 6.394,-7.235 6.56,6.471 -2.697,2.785 0,19.308 1.631,1.304 4.537,-5.303 0,-15.907 -1.706,-1.708 6.019,-6.77 6.44,6.44 -2.368,2.486 -0.059,19.382 1.737,1.41 4.731,-5.213 0,-15.819 -1.558,-1.556 6.649,-7.251 8.923,8.239 -0.377,0.408 -2.168,-1.996 -3.323,3.684 0,18.065 3.209,2.443 -0.334,0.44 L 44.264,1.213 38.193,8.021 29.508,1.161 23.429,7.78 15.044,1.221 8.904,7.752 0,0"
         id="path21651"
         style="fill:#000000;fill-opacity:1;fill-rule:nonzero;stroke:none" />
    </g>
    <g
       transform="matrix(1.25,0,0,-1.25,109.48671,131.80983)"
       id="g21653">
      <path
         d="m 0,0 0.362,-0.418 2.334,2.013 3.653,-4.322 0,-18.243 -2.575,-2.247 0.359,-0.427 2.702,2.314 5.893,-6.801 8.513,7.602 -0.359,0.415 -2.506,-2.206 -3.522,4.06 0,17.84 2.969,2.568 L 17.466,2.572 14.645,0.142 8.446,7.368 0,0"
         id="path21655"
         style="fill:#000000;fill-opacity:1;fill-rule:nonzero;stroke:none" />
    </g>
    <g
       transform="matrix(1.25,0,0,-1.25,115.43921,113.46733)"
       id="g21657">
      <path
         d="M 0,0 6.296,5.764 11.413,0.088 5.089,-5.647 0,0"
         id="path21659"
         style="fill:#000000;fill-opacity:1;fill-rule:nonzero;stroke:none" />
    </g>
    <g
       transform="matrix(1.25,0,0,-1.25,79.511706,148.86108)"
       id="g21661">
      <path
         d="m 0,0 0,20.239 -6.086,-2.72 c 0,0 -1.551,-3.47 -1.28,-8.514 0.214,-3.944 2.416,-8.653 4.108,-10.624 L 0,0 z m 17.817,41.671 c 1.501,-0.132 3.857,-0.875 5.633,-2.437 1.887,-1.824 2.314,-4.604 1.654,-7.13 -0.589,-2.255 -1.246,-3.421 -3.544,-4.979 -2.32,-1.572 -5.127,-1.438 -5.127,-1.438 l 0,-9.749 4.745,-3.844 -4.746,-3.826 0.002,-13.294 c 0,0 4.752,2.734 7.7,8.829 0,0 0.122,0.331 0.399,0.968 0.262,-1.641 0.113,-4.951 -1.736,-9.197 -1.392,-3.197 -3.928,-6.282 -7.106,-8.038 -5.63,-3.114 -9.853,-3.413 -14.38,-2.48 -5.302,1.095 -10.115,4.069 -13.402,9.27 -2.311,3.653 -3.343,7.908 -3.249,12.495 0.187,8.996 6.875,16.744 14.595,19.644 0.94,0.354 1.314,0.586 2.646,0.698 C 1.287,26.751 0.577,26.212 -0.294,25.638 -2.78,23.998 -4.913,20.746 -5.82,18.24 l 14.984,6.683 0,-20.955 -12.083,-6.05 c 1.376,-1.918 5.56,-4.808 9.14,-5.207 6.087,-0.68 9.658,1.982 9.658,1.982 l 0,13.575 -4.719,3.826 4.719,3.83 0,9.763 c -2.572,0.3 -5.697,1.154 -7.524,1.604 -2.689,0.66 -11.65,3.175 -13.057,3.384 -1.407,0.21 -3.145,0.15 -4.196,-0.796 -1.051,-0.945 -1.701,-2.61 -1.254,-4.11 0.254,-0.852 0.837,-1.354 1.279,-1.834 0,0 -0.517,0.045 -1.454,0.605 -1.693,1.012 -2.98,3.007 -3.133,5.455 -0.2,3.204 1.122,6.099 3.77,8.045 2.302,1.471 4.901,2.424 7.927,1.994 4.412,-0.625 10.346,-3.126 15.632,-4.396 2.047,-0.491 3.631,-0.655 5.071,0.177 0.671,0.486 1.85,1.735 0.886,3.394 -1.125,1.937 -3.281,1.892 -5.108,2.24 1.573,0.326 1.917,0.326 3.099,0.222"
         id="path21663"
         style="fill:#000000;fill-opacity:1;fill-rule:nonzero;stroke:none" />
    </g>
    <g
       transform="matrix(1.25,0,0,-1.25,242.20046,127.00358)"
       id="g21665">
      <path
         d="m 0,0 0,-9.586 3.189,-2.785 c 0,0 6.934,5.556 9.451,10.693 0,0 -3.116,-4.224 -7.309,-2.935 C 1.821,-3.534 0,0 0,0 z m -7.741,-25.418 c 0,0 3.037,5.021 8.251,3.938 5.002,-1.037 6.738,-6.321 6.738,-6.321 l 0,12.163 -3.489,3.041 c -3.833,-3.85 -10.653,-9.429 -11.5,-12.821 z m 4.971,-9.242 c -0.973,-0.285 -5.199,0.74 -6.214,5.123 -0.986,4.268 1.977,7.159 6.454,11.712 l -5.285,4.824 0,9.227 c 0,0 3.882,1.94 6.928,3.846 3.044,1.905 6.16,3.972 6.16,3.972 0,0 2.268,-2.869 4.833,-2.643 4.021,0.352 3.834,3.527 3.719,4.275 0.685,-1.227 2.52,-4.87 -4.54,-13.015 l 5.749,-4.644 0,-11.983 c 0,0 -6.679,-3.474 -12.997,-8.088 0,0 -3.527,4.414 -6.588,2.307 -2.068,-1.423 -1.124,-3.835 1.781,-4.913"
         id="path21667"
         style="fill:#000000;fill-opacity:1;fill-rule:nonzero;stroke:none" />
    </g>
    <g
       transform="matrix(1.25,0,0,-1.25,-50.177044,153.28608)"
       id="g21669">
      <path
         d="m 0,0 7.427,-6.725 0,20.566 L 0,20.715 0,0 z m 15.312,16.796 2.589,2.384 0.375,-0.419 -2.525,-2.344 0,-19.053 c 0,0 -4.79,-2.546 -8.134,-4.432 -3.34,-1.887 -6.91,-4.099 -6.91,-4.099 l -8.789,7.4 -2.325,-2.021 -0.375,0.425 2.445,2.122 0,20.494 0.031,0 c 0,0 4.146,1.875 7.643,3.849 3.126,1.764 6.628,3.812 6.628,3.812 l 9.347,-8.118"
         id="path21671"
         style="fill:#000000;fill-opacity:1;fill-rule:nonzero;stroke:none" />
    </g>
    <g
       transform="matrix(1.25,0,0,-1.25,-9.4345443,129.88858)"
       id="g21673">
      <path
         d="m 0,0 5.582,5.71 c 0,0 0.768,-0.669 1.486,-1.026 0.409,-0.203 2.098,-1.07 3.649,-0.218 0.839,0.463 0.959,0.583 1.882,1.458 C 12.785,1.484 10.657,-1.645 8,-2.932 6.914,-3.459 3.739,-4.478 0.416,-0.426 l 0,-20.508 3.534,-3.122 2.948,2.441 0.341,-0.424 -9.237,-7.712 -7.028,6.396 -2.528,-2.387 -0.417,0.44 3.853,3.478 0.031,17.706 -2.953,3.915 -2.54,-2.245 -0.367,0.413 L -5,6.01 0,0"
         id="path21675"
         style="fill:#000000;fill-opacity:1;fill-rule:nonzero;stroke:none" />
    </g>
    <g
       transform="matrix(1.25,0,0,-1.25,19.985456,140.56608)"
       id="g21677">
      <path
         d="m 0,0 10.323,15.028 c 0,0 1.359,-1.619 3.73,-2.241 3.223,-0.844 6.04,2.272 6.04,2.272 C 19.553,11.042 17.518,6.479 13.315,5.784 9.611,5.172 6.167,8.049 6.167,8.049 l -0.67,-1.033 14.331,-21.65 2.866,2.509 0.369,-0.417 -9.834,-8.592 L 0,0"
         id="path21679"
         style="fill:#000000;fill-opacity:1;fill-rule:nonzero;stroke:none" />
    </g>
    <g
       transform="matrix(1.25,0,0,-1.25,9.3267057,115.48983)"
       id="g21681">
      <path
         d="m 0,0 c 0,3.235 -1.327,5.242 -3.064,5.092 l 11.259,7.909 0,-44.771 10e-4,0 2.974,-3.14 2.25,1.956 0.356,-0.417 -9.073,-7.925 -6.146,5.767 -2.46,-2.157 -0.389,0.418 L 0,-33.529 0,0"
         id="path21683"
         style="fill:#000000;fill-opacity:1;fill-rule:nonzero;stroke:none" />
    </g>
    <g
       transform="matrix(1.25,0,0,-1.25,-81.037044,131.22858)"
       id="g21685">
      <path
         d="m 0,0 c 0,0 -1.243,-1.417 -3.2,-1.417 -1.956,0 -3.238,1.424 -3.238,1.424 l 0,-6.131 c 0,0 1.282,1.423 3.238,1.423 1.957,0 3.2,-1.349 3.2,-1.349 L 0,0 z m 0,13.143 -4.342,3.819 -2.096,-1.663 0,-14.379 c 0,0 1.292,-1.634 3.249,-1.634 C -1.232,-0.714 0,0.86 0,0.86 l 0,12.283 z m -6.438,-40.735 c 0,0 2.625,-0.698 4.537,0.877 2.126,1.752 1.901,4.209 1.901,4.209 l 0,15.512 c 0,0 -1.232,1.588 -3.189,1.588 -1.957,0 -3.249,-1.64 -3.249,-1.64 l 0,-20.546 z M -21.83,13.325 c -0.001,3.024 -1.23,4.715 -3.219,4.758 -2.862,0.063 -3.54,-3.976 -3.54,-3.976 0,0 -0.519,3.109 2.083,5.935 1.464,1.588 4.196,3.795 8.465,2.769 4.411,-1.061 5.662,-4.486 5.662,-7.512 l 0,-41.659 c 0,0 1.668,-0.199 2.81,-0.445 1.326,-0.285 2.583,-0.637 2.583,-0.637 l 0,50.232 0.548,0 0,-6.772 9.043,7.281 6.623,-5.888 3.09,2.673 0.35,-0.42 -3.227,-2.788 0,-38.727 c -0.161,-2.533 -0.568,-5.097 -2.954,-6.575 -5.319,-3.157 -11.738,0.478 -17.457,1.314 -4.242,0.621 -10.906,1.43 -12.579,-2.468 -0.546,-1.277 -0.508,-3.257 1.418,-4.544 3.862,-2.582 21.067,4.338 26.967,1.587 5.379,-2.506 5.359,-6.466 4.528,-9.186 -1.399,-5.109 -7.846,-6.003 -7.846,-6.003 0,0 3.154,1.824 2.254,4.86 -0.455,1.536 -1.497,1.966 -4.871,1.587 -7.375,-0.83 -16.189,-4.409 -22.112,-1.931 -3.052,1.276 -5.21,5.09 -5.002,8.84 0.152,5.394 6.383,7.526 6.383,7.526 l -0.001,19.968 c -0.18,0.786 -3.505,0.576 -4.23,-0.885 -1.106,-2.222 1.374,-3.237 1.374,-3.237 0,0 -2.056,-0.305 -3.778,1.683 -0.838,0.966 -2.59,4.363 -0.312,7.514 1.872,2.589 4.115,3.041 6.947,3.356 l 0,11.77"
         id="path21687"
         style="fill:#000000;fill-opacity:1;fill-rule:nonzero;stroke:none" />
    </g>
  </g>
</svg>
