<?xml version="1.0" encoding="UTF-8" standalone="no"?>
<!-- Created with Inkscape (http://www.inkscape.org/) -->
<svg
   xmlns:svg="http://www.w3.org/2000/svg"
   xmlns="http://www.w3.org/2000/svg"
   version="1.0"
   width="708.66144"
   height="303.40219"
   id="svg13519">
  <defs
     id="defs13521" />
  <g
     transform="translate(501.19786,274.71248)"
     id="layer1">
    <g
       transform="matrix(1.4866562,0,0,1.4866562,243.91105,-13.962026)"
       id="g13535">
      <path
         d="M -501.19786,-175.39392 L -24.516425,-175.39392 L -24.516425,28.68971 L -501.19786,28.68971 L -501.19786,-175.39392 z"
         id="path3591"
         style="font-size:10px;letter-spacing:0;word-spacing:0;fill:#ec1b24;fill-rule:nonzero;stroke:none" />
      <path
         d="M -341.90937,-73.347381 C -341.90937,-106.67139 -368.91528,-132.38904 -402.61822,-132.38904 C -436.33062,-132.38904 -463.33654,-106.67139 -463.33654,-73.347381 C -463.33654,-40.032783 -436.33062,-14.324621 -402.61822,-14.324621 C -368.91528,-14.324621 -341.90937,-40.032783 -341.90937,-73.347381 M -370.72454,-73.347381 C -370.72454,-55.42552 -386.12671,-41.122105 -402.61822,-41.122105 C -419.29917,-41.122105 -434.52139,-55.42552 -434.52139,-73.347381 C -434.52139,-91.278653 -419.29917,-105.58207 -402.61822,-105.58207 C -386.12671,-105.58207 -370.72454,-91.278653 -370.72454,-73.347381"
         id="path3593"
         style="font-size:10px;letter-spacing:0;word-spacing:0;fill:#ffffff;fill-rule:nonzero;stroke:none" />
      <path
         d="M -301.71785,-16.493775 L -273.80257,-16.493775 L -273.80257,-49.628347 L -252.96322,-49.628347 L -231.03447,-16.493775 L -196.24226,-16.493775 L -224.328,-56.325406 C -211.10449,-62.122497 -201.85941,-74.616648 -201.85941,-90.009385 C -201.85941,-112.64851 -218.5309,-130.2104 -243.90757,-130.2104 L -301.71785,-130.2104 L -301.71785,-16.493775 z M -245.53681,-76.425912 L -273.80257,-76.425912 L -273.80257,-103.41283 L -245.53681,-103.41283 C -233.39314,-103.41283 -229.7652,-97.435796 -229.7652,-90.009385 C -229.7652,-82.40303 -233.39314,-76.425912 -245.53681,-76.425912"
         id="path3595"
         style="font-size:10px;letter-spacing:0;word-spacing:0;fill:#ffffff;fill-rule:nonzero;stroke:none" />
      <path
         d="M -154.92345,-16.560057 L -127.03664,-16.560057 L -127.03664,-54.847717 L -74.331985,-54.847717 L -74.331985,-81.626298 L -127.03664,-81.626298 L -127.03664,-103.43182 L -62.377745,-103.43182 L -62.377745,-130.2104 L -154.92345,-130.2104 L -154.92345,-16.560057 z"
         id="path3597"
         style="font-size:10px;letter-spacing:0;word-spacing:0;fill:#ffffff;fill-rule:nonzero;stroke:none" />
      <path
         d="M -501.19786,-175.39392 L -24.516425,-175.39392 L -24.516425,28.68971 L -501.19786,28.68971 L -501.19786,-175.39392 z"
         id="path3603"
         style="font-size:10px;letter-spacing:0;word-spacing:0;fill:#e2001a;fill-opacity:1;fill-rule:nonzero;stroke:none" />
      <path
         d="M -341.90937,-73.347381 C -341.90937,-106.67139 -368.91528,-132.38904 -402.61822,-132.38904 C -436.33062,-132.38904 -463.33654,-106.67139 -463.33654,-73.347381 C -463.33654,-40.032783 -436.33062,-14.324621 -402.61822,-14.324621 C -368.91528,-14.324621 -341.90937,-40.032783 -341.90937,-73.347381 M -370.72454,-73.347381 C -370.72454,-55.42552 -386.12671,-41.122105 -402.61822,-41.122105 C -419.29917,-41.122105 -434.52139,-55.42552 -434.52139,-73.347381 C -434.52139,-91.278653 -419.29917,-105.58207 -402.61822,-105.58207 C -386.12671,-105.58207 -370.72454,-91.278653 -370.72454,-73.347381"
         id="path3605"
         style="font-size:10px;letter-spacing:0;word-spacing:0;fill:#ffffff;fill-rule:nonzero;stroke:none" />
      <path
         d="M -301.71785,-16.493775 L -273.80257,-16.493775 L -273.80257,-49.628347 L -252.96322,-49.628347 L -231.03447,-16.493775 L -196.24226,-16.493775 L -224.328,-56.325406 C -211.10449,-62.122497 -201.85941,-74.616648 -201.85941,-90.009385 C -201.85941,-112.64851 -218.5309,-130.2104 -243.90757,-130.2104 L -301.71785,-130.2104 L -301.71785,-16.493775 z M -245.53681,-76.425912 L -273.80257,-76.425912 L -273.80257,-103.41283 L -245.53681,-103.41283 C -233.39314,-103.41283 -229.7652,-97.435796 -229.7652,-90.009385 C -229.7652,-82.40303 -233.39314,-76.425912 -245.53681,-76.425912"
         id="path3607"
         style="font-size:10px;letter-spacing:0;word-spacing:0;fill:#ffffff;fill-rule:nonzero;stroke:none" />
      <path
         d="M -154.92345,-16.560057 L -127.03664,-16.560057 L -127.03664,-54.847717 L -74.331985,-54.847717 L -74.331985,-81.626298 L -127.03664,-81.626298 L -127.03664,-103.43182 L -62.377745,-103.43182 L -62.377745,-130.2104 L -154.92345,-130.2104 L -154.92345,-16.560057 z"
         id="path3609"
         style="font-size:10px;letter-spacing:0;word-spacing:0;fill:#ffffff;fill-rule:nonzero;stroke:none" />
    </g>
  </g>
</svg>
