<?xml version="1.0" encoding="UTF-8" standalone="no"?>
<!-- Created with Inkscape (http://www.inkscape.org/) -->
<svg xmlns:svg="http://www.w3.org/2000/svg" xmlns="http://www.w3.org/2000/svg" version="1.0" width="577.89929" height="126.01392" id="svg13544">
  <defs id="defs13546"/>
  <g transform="translate(654.664, -35.0695)" id="layer1">
    <g transform="translate(-7.88281e-06, 1.11987e-06)" id="elpaislogo">
      <path d="M -232.65303,47.220843 L -177.05553,47.220843 L -177.05553,35.693344 L -232.65303,47.220843" style="opacity: 1; fill: rgb(0, 107, 161); fill-rule: nonzero; stroke: none;" id="accent"/>
      <path d="M -96.53929,92.785836 L -85.366787,92.785836 L -85.366787,53.219588 L -94.368042,53.219588 L -99.489292,61.069586 C -107.24804,55.574591 -117.18054,50.078337 -128.97555,50.078337 C -147.75303,50.078337 -167.46178,59.499591 -167.46178,81.638337 C -167.46178,126.54583 -98.246788,106.28834 -98.246788,133.13959 C -98.246788,140.67709 -104.76553,147.11458 -118.42304,147.11458 C -140.45929,147.11458 -153.18428,135.80834 -155.35679,114.76959 L -166.84054,114.76959 L -166.84054,157.31958 L -156.28803,157.31958 L -152.87428,148.05584 C -143.87179,155.43459 -132.23429,160.4596 -120.59553,160.4596 C -98.86803,160.4596 -79.625534,152.29458 -79.625534,127.32958 C -79.625534,83.522092 -148.83929,101.10834 -148.83929,77.55583 C -148.83929,67.193339 -142.94054,63.425847 -128.50929,63.425847 C -110.04303,63.425847 -100.26428,75.672094 -96.53929,92.785836 M -223.48429,157.31958 L -177.23805,157.31958 L -177.23805,145.70084 L -186.23678,145.70084 C -191.51428,145.70084 -193.84178,143.03084 -193.84178,138.00709 L -193.84178,72.374594 C -193.84178,66.408331 -189.03179,64.838335 -184.06554,64.838335 L -177.23805,64.838335 L -177.23805,53.219588 L -232.17554,53.219588 L -232.17554,64.838335 L -223.48429,64.838335 C -217.4318,64.838335 -215.56929,67.978345 -215.56929,71.903345 L -215.56929,140.04833 C -215.56929,144.03584 -217.99803,145.5996 -224.04053,145.67209 C -231.91929,145.61585 -237.05553,144.41834 -239.77928,137.22208 L -270.81555,53.219588 L -292.54303,53.219588 L -322.18428,137.22208 C -324.82304,144.60209 -330.25429,145.70084 -338.47929,145.70084 L -338.47929,157.31958 L -290.05928,157.31958 L -290.05928,145.70084 L -302.16429,145.70084 C -305.11303,145.70084 -307.13179,145.07208 -307.13179,142.87584 C -307.13179,141.46208 -306.81929,140.51834 -306.50929,139.57708 L -301.3893,123.87583 L -266.16053,123.87583 L -261.04054,139.57708 C -260.7293,140.51834 -260.41804,141.93209 -260.41804,143.34583 C -260.41804,144.91709 -261.65928,145.70084 -265.23054,145.70084 L -277.48928,145.70084 L -277.48928,157.31958 L -223.48429,157.31958 z M -270.6618,112.25708 L -296.88679,112.25708 L -284.47304,74.415837 L -284.16304,74.415837 L -270.6618,112.25708 z M -318.92679,81.795846 C -318.92679,64.053346 -332.27179,53.219588 -355.55178,53.219588 L -416.38554,53.219588 L -416.38554,64.838335 L -406.45304,64.838335 C -402.88304,64.838335 -399.77928,66.094591 -399.77928,70.17708 L -399.77928,140.36209 C -399.77928,144.44584 -402.88304,145.70084 -406.45304,145.70084 L -416.38554,145.70084 L -416.38554,157.31958 L -360.67179,157.31958 L -360.67179,145.70084 L -370.60303,145.70084 C -374.17303,145.70084 -378.05304,144.44584 -378.05304,140.36209 L -378.05304,110.21584 L -353.68803,110.21584 C -332.89303,110.21584 -318.92679,101.10834 -318.92679,81.795846 M -341.58304,81.952096 C -341.58304,94.043331 -349.34429,98.59583 -363.93179,98.59583 L -378.05304,98.59583 L -378.05304,64.838335 L -363.93179,64.838335 C -347.79053,64.838335 -341.58304,69.862081 -341.58304,81.952096 M -544.25804,157.31958 L -447.26553,157.31958 L -447.26553,112.57084 L -458.74804,112.57084 C -460.14553,136.90708 -464.02428,145.85709 -480.00929,145.85709 L -505.30554,145.85709 L -505.30554,71.903345 C -505.30554,66.408331 -502.97804,64.838335 -496.14929,64.838335 L -487.45928,64.838335 L -487.45928,53.219588 L -544.25804,53.219588 L -544.25804,64.838335 L -535.25679,64.838335 C -529.04928,64.838335 -527.03179,66.879579 -527.03179,71.589586 L -527.03179,138.7921 C -527.03179,144.13084 -529.98179,145.70084 -534.32678,145.70084 L -544.25804,145.70084 L -544.25804,157.31958 z M -651.80304,157.31958 L -549.3768,157.31958 L -549.3768,113.35585 L -560.86178,113.35585 C -562.25804,136.75083 -567.84554,145.70084 -582.12303,145.70084 L -613.16054,145.70084 L -613.16054,109.11583 L -604.93553,109.11583 C -595.6243,109.11583 -591.43429,113.98335 -591.43429,126.70334 L -591.43429,130.46959 L -579.95054,130.46959 L -579.95054,78.027097 L -591.43429,78.027097 L -591.43429,80.068342 C -591.43429,92.785836 -595.6243,97.497083 -604.93553,97.497083 L -613.16054,97.497083 L -613.16054,64.838335 L -585.84803,64.838335 C -565.05179,64.838335 -563.19054,73.317091 -560.86178,94.67083 L -549.3768,94.67083 L -549.3768,53.219588 L -651.80304,53.219588 L -651.80304,64.838335 L -644.81928,64.838335 C -636.75053,64.838335 -634.88678,66.879579 -634.88678,73.63083 L -634.88678,134.70959 C -634.88678,144.13084 -637.83678,145.70084 -643.11304,145.70084 L -651.80304,145.70084 L -651.80304,157.31958" style="opacity: 1; fill: rgb(33, 30, 30); fill-rule: nonzero; stroke: none;" id="elpaistext"/>
    </g>
  </g>
</svg>